<?xml version="1.0" encoding="UTF-8" standalone="no"?>
<!-- Created with Inkscape (http://www.inkscape.org/) -->

<svg
   width="110.80537mm"
   height="110.80537mm"
   viewBox="0 0 110.80537 110.80537"
   version="1.1"
   id="svg5"
   xml:space="preserve"
   inkscape:version="1.2.2 (b0a84865, 2022-12-01)"
   sodipodi:docname="planets.svg"
   inkscape:export-filename="download.png"
   inkscape:export-xdpi="148.65"
   inkscape:export-ydpi="148.65"
   xmlns:inkscape="http://www.inkscape.org/namespaces/inkscape"
   xmlns:sodipodi="http://sodipodi.sourceforge.net/DTD/sodipodi-0.dtd"
   xmlns="http://www.w3.org/2000/svg"
   xmlns:svg="http://www.w3.org/2000/svg"><sodipodi:namedview
     id="namedview7"
     pagecolor="#ffffff"
     bordercolor="#666666"
     borderopacity="1.0"
     inkscape:showpageshadow="2"
     inkscape:pageopacity="0.0"
     inkscape:pagecheckerboard="0"
     inkscape:deskcolor="#d1d1d1"
     inkscape:document-units="mm"
     showgrid="true"
     inkscape:zoom="0.79142743"
     inkscape:cx="349.36874"
     inkscape:cy="157.3107"
     inkscape:window-width="1429"
     inkscape:window-height="826"
     inkscape:window-x="0"
     inkscape:window-y="25"
     inkscape:window-maximized="0"
     inkscape:current-layer="layer1"><inkscape:grid
       type="xygrid"
       id="grid2802" /></sodipodi:namedview><defs
     id="defs2" /><g
     inkscape:label="Layer 1"
     inkscape:groupmode="layer"
     id="layer1"
     transform="translate(-55.343086,-80.512566)"><g
       id="g2744"
       transform="matrix(0.86877001,0,0,0.86877001,14.530978,17.867598)"
       style="fill:#3942ed;fill-opacity:1"><path
         style="fill:#3942ed;fill-opacity:1;stroke:none;stroke-width:0.529"
         d="m 112.45499,84.289628 v 73.091842 l 16.75022,-21.31845 1.52274,1.52274 -19.7957,25.8867 -19.795712,-25.8867 1.744996,-1.23988 16.527966,21.03559 V 84.289628 Z"
         id="path585"
         sodipodi:nodetypes="cccccccccc" /><path
         style="fill:#3942ed;fill-opacity:1;stroke:none;stroke-width:0.529"
         d="m 162.70563,189.35915 v -53.29613 h -3.04549 l 0,50.25064 H 60.681604 l 0,-50.25064 h -3.045493 v 53.29613 z"
         id="path704"
         sodipodi:nodetypes="ccccccccc" /></g><path
       style="fill:#ededed;fill-opacity:1;stroke:none;stroke-width:0.529"
       d="m 176.89161,101.51941 2.80564,0.15982 37.04167,37.04166 37.04166,-37.04166 2.48602,-0.15982 0.15982,2.80565 -37.04167,37.04167 37.04167,37.04166 -0.15982,2.48602 -2.48602,0.15982 -37.04166,-37.04167 -37.04167,37.04167 -2.80564,-0.15982 0.15981,-2.48602 37.04166,-37.04166 -37.04166,-37.04167 z"
       id="path2804"
       sodipodi:nodetypes="ccccccccccccccccc" /></g></svg>
