<?xml version="1.0" encoding="UTF-8" standalone="no"?>
<!-- Created with Inkscape (http://www.inkscape.org/) -->

<svg
   width="92.604164mm"
   height="92.604164mm"
   viewBox="0 0 92.604164 92.604164"
   version="1.1"
   id="svg5"
   inkscape:version="1.2.2 (b0a84865, 2022-12-01)"
   sodipodi:docname="logo.svg"
   inkscape:export-filename="logo.png"
   inkscape:export-xdpi="96"
   inkscape:export-ydpi="96"
   xmlns:inkscape="http://www.inkscape.org/namespaces/inkscape"
   xmlns:sodipodi="http://sodipodi.sourceforge.net/DTD/sodipodi-0.dtd"
   xmlns="http://www.w3.org/2000/svg"
   xmlns:svg="http://www.w3.org/2000/svg">
  <sodipodi:namedview
     id="namedview7"
     pagecolor="#ffffff"
     bordercolor="#000000"
     borderopacity="0.25"
     inkscape:showpageshadow="2"
     inkscape:pageopacity="0.0"
     inkscape:pagecheckerboard="0"
     inkscape:deskcolor="#d1d1d1"
     inkscape:document-units="mm"
     showgrid="true"
     inkscape:zoom="1.6498446"
     inkscape:cx="170.62213"
     inkscape:cy="182.13836"
     inkscape:window-width="1440"
     inkscape:window-height="847"
     inkscape:window-x="0"
     inkscape:window-y="25"
     inkscape:window-maximized="0"
     inkscape:current-layer="layer2">
    <inkscape:grid
       type="xygrid"
       id="grid790"
       spacingx="2.6458333"
       originx="-52.916665"
       spacingy="2.6458333"
       originy="-52.916665" />
  </sodipodi:namedview>
  <defs
     id="defs2" />
  <g
     inkscape:label="Guide"
     inkscape:groupmode="layer"
     id="layer1"
     sodipodi:insensitive="true"
     style="display:none"
     transform="translate(-52.916667,-52.916667)">
    <path
       style="fill:none;fill-opacity:1;stroke:#39d8ed;stroke-width:1;stroke-dasharray:none;stroke-opacity:1"
       d="M 52.916666,52.916666 H 145.52083 V 145.52083 H 52.916666 Z"
       id="path792" />
  </g>
  <g
     inkscape:groupmode="layer"
     id="layer3"
     inkscape:label="Back"
     sodipodi:insensitive="true"
     style="display:none">
    <rect
       style="fill:#ffffff;fill-opacity:1;stroke:none;stroke-width:1;stroke-opacity:1"
       id="rect4685"
       width="92.604164"
       height="92.604164"
       x="1e-06"
       y="1e-06" />
  </g>
  <g
     inkscape:groupmode="layer"
     id="layer2"
     inkscape:label="Content"
     transform="translate(-52.916667,-52.916667)">
    <rect
       style="fill:#aae4ea;fill-opacity:1;stroke:none;stroke-width:1;stroke-linecap:round;stroke-linejoin:round;stroke-dasharray:none;stroke-opacity:1"
       id="rect4784"
       width="92.604164"
       height="92.604164"
       x="52.916668"
       y="52.916668"
       ry="6.1767572e-08" />
    <path
       style="fill:#ffffff;stroke:none;stroke-width:1;stroke-linecap:round;stroke-linejoin:round;stroke-dasharray:none;stroke-opacity:1"
       d="m 100.54167,74.083334 c 26.45833,0 23.8125,23.8125 23.8125,23.8125 l 21.16666,-3e-6 v 2.645839 h -21.16666 c 0,0 2.64583,23.8125 -23.8125,23.8125 -26.45833,0 -23.812502,-21.16667 -23.812502,-21.16667 0,0 0,5.29167 -7.9375,5.29167 -7.9375,0 -7.9375,-7.9375 -7.9375,-7.9375 0,0 0,2.64583 -2.645834,2.64583 -2.645833,0 -2.645833,-2.64583 -2.645833,-2.64583 h -2.645833 v -2.645837 l 2.645833,10e-7 c 0,0 0,-2.645833 2.645833,-2.645833 2.645834,0 2.645834,2.645833 2.645834,2.645833 0,0 0,-7.9375 7.9375,-7.9375 7.9375,0 7.9375,5.291668 7.9375,5.291668 0,0 -2.645828,-21.166668 23.812502,-21.166668 z"
       id="path981"
       sodipodi:nodetypes="zcccczczczcccczczcz" />
    <path
       style="fill:#ffffff;stroke:none;stroke-width:1;stroke-linecap:round;stroke-linejoin:round;stroke-dasharray:none;stroke-opacity:1"
       d="m 100.54167,63.500001 c -5.291664,0 -5.291671,2.79715 -5.291671,5.291666 0,2.494516 7e-6,5.291667 5.291671,5.291667 5.29166,0 5.29166,-2.797153 5.29166,-5.291667 0,-2.494514 0,-5.291666 -5.29166,-5.291666 z"
       id="path3990"
       sodipodi:nodetypes="zzzzz" />
    <path
       style="fill:#ffffff;stroke:none;stroke-width:1;stroke-linecap:round;stroke-linejoin:round;stroke-dasharray:none;stroke-opacity:1"
       d="m 100.54167,124.35417 c -5.291664,0 -5.291671,2.79715 -5.29167,5.29167 10e-7,2.49452 6e-6,5.29166 5.29167,5.29166 5.29166,0 5.29166,-2.79715 5.29166,-5.29166 0,-2.49451 0,-5.29167 -5.29166,-5.29167 z"
       id="path3992"
       sodipodi:nodetypes="zzzzz" />
  </g>
</svg>
